<?xml version="1.0" encoding="UTF-8"?>
<!DOCTYPE svg PUBLIC "-//W3C//DTD SVG 1.1//EN" "http://www.w3.org/Graphics/SVG/1.1/DTD/svg11.dtd">
<svg xmlns="http://www.w3.org/2000/svg" version="1.1" width="500px" height="500px" style="shape-rendering:geometricPrecision; text-rendering:geometricPrecision; image-rendering:optimizeQuality; fill-rule:evenodd; clip-rule:evenodd" xmlns:xlink="http://www.w3.org/1999/xlink">
<g><path style="opacity:1" fill="#d8d8d8" d="M -0.5,-0.5 C 166.167,-0.5 332.833,-0.5 499.5,-0.5C 499.5,166.167 499.5,332.833 499.5,499.5C 332.833,499.5 166.167,499.5 -0.5,499.5C -0.5,332.833 -0.5,166.167 -0.5,-0.5 Z"/></g>
<g><path style="opacity:1" fill="#fd9011" d="M 304.5,253.5 C 274.185,255.492 243.518,256.159 212.5,255.5C 212.668,250.327 215.002,246.494 219.5,244C 214.5,243.667 209.5,243.333 204.5,243C 202.376,241.878 200.543,240.378 199,238.5C 197.875,227.248 197.042,215.915 196.5,204.5C 183.392,198.283 178.225,187.95 181,173.5C 189.173,155.611 202.007,151.444 219.5,161C 222.206,163.371 224.539,166.037 226.5,169C 255.5,169.333 284.5,169.667 313.5,170C 315.709,171.873 317.542,174.04 319,176.5C 319.667,196.5 319.667,216.5 319,236.5C 317.5,239.333 315.333,241.5 312.5,243C 307.5,243.333 302.5,243.667 297.5,244C 301.597,245.922 303.93,249.088 304.5,253.5 Z"/></g>
<g><path style="opacity:1" fill="#d6d3d1" d="M 199.5,163.5 C 218.945,163.083 225.778,172.083 220,190.5C 213.662,199.388 205.495,201.555 195.5,197C 184.031,186.951 183.698,176.618 194.5,166C 196.315,165.243 197.981,164.41 199.5,163.5 Z"/></g>
<g><path style="opacity:1" fill="#d7d6d6" d="M 312.5,231.5 C 276.833,231.5 241.167,231.5 205.5,231.5C 205.5,222.833 205.5,214.167 205.5,205.5C 222.188,203.137 230.188,193.471 229.5,176.5C 257.167,176.5 284.833,176.5 312.5,176.5C 312.5,194.833 312.5,213.167 312.5,231.5 Z"/></g>
<g><path style="opacity:1" fill="#3d3d3d" d="M 191.5,176.5 C 193.527,176.338 195.527,176.505 197.5,177C 201.44,183.896 199.44,187.063 191.5,186.5C 191.5,183.167 191.5,179.833 191.5,176.5 Z"/></g>
<g><path style="opacity:1" fill="#2c2c2c" d="M 200.5,177.5 C 202.344,179.279 203.01,181.612 202.5,184.5C 204.144,184.714 205.644,184.38 207,183.5C 207.333,181.5 207.667,179.5 208,177.5C 208.667,179.833 208.667,182.167 208,184.5C 205.16,187.371 202.826,187.037 201,183.5C 200.505,181.527 200.338,179.527 200.5,177.5 Z"/></g>
<g><path style="opacity:1" fill="#b4b4b4" d="M 192.5,178.5 C 193.978,178.238 195.311,178.571 196.5,179.5C 195.833,179.833 195.167,180.167 194.5,180.5C 193.287,180.253 192.62,179.586 192.5,178.5 Z"/></g>
<g><path style="opacity:1" fill="#252525" d="M 210.5,178.5 C 210.56,177.957 210.893,177.624 211.5,177.5C 212.719,178.263 213.719,179.263 214.5,180.5C 215.275,178.525 216.609,177.691 218.5,178C 216.374,180.433 215.041,183.266 214.5,186.5C 214.018,183.297 212.685,180.631 210.5,178.5 Z"/></g>
<g><path style="opacity:1" fill="#202020" d="M 237.5,181.5 C 241.909,182.575 244.575,185.242 245.5,189.5C 258.167,189.5 270.833,189.5 283.5,189.5C 282.47,196.647 280.804,203.647 278.5,210.5C 245.167,211.833 245.167,213.167 278.5,214.5C 269.833,215.833 261.167,215.833 252.5,214.5C 248.48,205.926 245.646,196.926 244,187.5C 242.421,185.959 240.587,184.792 238.5,184C 237.748,183.329 237.414,182.496 237.5,181.5 Z"/></g>
<g><path style="opacity:1" fill="#c4c4c4" d="M 273.5,191.5 C 276.167,191.5 278.833,191.5 281.5,191.5C 281.5,193.167 281.5,194.833 281.5,196.5C 278.833,196.5 276.167,196.5 273.5,196.5C 273.5,194.833 273.5,193.167 273.5,191.5 Z"/></g>
<g><path style="opacity:1" fill="#cbcbcb" d="M 265.5,191.5 C 267.833,191.5 270.167,191.5 272.5,191.5C 272.5,193.167 272.5,194.833 272.5,196.5C 270.167,196.5 267.833,196.5 265.5,196.5C 265.5,194.833 265.5,193.167 265.5,191.5 Z"/></g>
<g><path style="opacity:1" fill="#cdcdcd" d="M 256.5,191.5 C 258.833,191.5 261.167,191.5 263.5,191.5C 263.5,193.167 263.5,194.833 263.5,196.5C 261.167,196.5 258.833,196.5 256.5,196.5C 256.5,194.833 256.5,193.167 256.5,191.5 Z"/></g>
<g><path style="opacity:1" fill="#cdcdcd" d="M 246.5,192.5 C 248.948,191.527 251.615,191.194 254.5,191.5C 254.5,193.167 254.5,194.833 254.5,196.5C 252.167,196.5 249.833,196.5 247.5,196.5C 247.768,194.901 247.434,193.568 246.5,192.5 Z"/></g>
<g><path style="opacity:1" fill="#bfbfbf" d="M 248.5,197.5 C 250.5,197.5 252.5,197.5 254.5,197.5C 254.5,199.5 254.5,201.5 254.5,203.5C 249.839,204.168 247.839,202.168 248.5,197.5 Z"/></g>
<g><path style="opacity:1" fill="#d6d6d6" d="M 279.5,200.5 C 279.5,201.167 279.5,201.833 279.5,202.5C 277.833,202.5 276.167,202.5 274.5,202.5C 274.5,201.167 274.5,199.833 274.5,198.5C 276.781,198.077 278.448,198.744 279.5,200.5 Z"/></g>
<g><path style="opacity:1" fill="#b0b0b0" d="M 256.5,197.5 C 258.833,197.5 261.167,197.5 263.5,197.5C 263.5,199.5 263.5,201.5 263.5,203.5C 261.167,203.5 258.833,203.5 256.5,203.5C 256.5,201.5 256.5,199.5 256.5,197.5 Z"/></g>
<g><path style="opacity:1" fill="#acacac" d="M 265.5,197.5 C 267.833,197.5 270.167,197.5 272.5,197.5C 272.5,199.5 272.5,201.5 272.5,203.5C 270.167,203.5 267.833,203.5 265.5,203.5C 265.5,201.5 265.5,199.5 265.5,197.5 Z"/></g>
<g><path style="opacity:1" fill="#797979" d="M 279.5,200.5 C 278.448,198.744 276.781,198.077 274.5,198.5C 274.5,199.833 274.5,201.167 274.5,202.5C 276.167,202.5 277.833,202.5 279.5,202.5C 277.735,203.461 275.735,203.795 273.5,203.5C 273.5,201.5 273.5,199.5 273.5,197.5C 275.833,197.5 278.167,197.5 280.5,197.5C 280.737,198.791 280.404,199.791 279.5,200.5 Z"/></g>
<g><path style="opacity:1" fill="#c4c4c4" d="M 249.5,204.5 C 251.167,204.5 252.833,204.5 254.5,204.5C 254.5,206.167 254.5,207.833 254.5,209.5C 253.167,209.5 251.833,209.5 250.5,209.5C 250.371,207.784 250.038,206.117 249.5,204.5 Z"/></g>
<g><path style="opacity:1" fill="#b1b1b1" d="M 256.5,204.5 C 258.833,204.5 261.167,204.5 263.5,204.5C 263.5,206.5 263.5,208.5 263.5,210.5C 261.167,210.5 258.833,210.5 256.5,210.5C 256.5,208.5 256.5,206.5 256.5,204.5 Z"/></g>
<g><path style="opacity:1" fill="#acacac" d="M 265.5,204.5 C 267.833,204.5 270.167,204.5 272.5,204.5C 272.5,206.5 272.5,208.5 272.5,210.5C 270.167,210.5 267.833,210.5 265.5,210.5C 265.5,208.5 265.5,206.5 265.5,204.5 Z"/></g>
<g><path style="opacity:1" fill="#9c9c9c" d="M 273.5,204.5 C 275.288,204.215 276.955,204.548 278.5,205.5C 277.754,206.736 277.421,208.07 277.5,209.5C 276.167,209.5 274.833,209.5 273.5,209.5C 273.5,207.833 273.5,206.167 273.5,204.5 Z"/></g>
<g><path style="opacity:1" fill="#2c2c2c" d="M 255.5,216.5 C 260.262,217.092 261.596,219.592 259.5,224C 253.413,224.205 252.079,221.705 255.5,216.5 Z"/></g>
<g><path style="opacity:1" fill="#2c2c2c" d="M 268.5,216.5 C 274.488,216.664 275.821,219.164 272.5,224C 266.403,224.147 265.07,221.647 268.5,216.5 Z"/></g>
<g><path style="opacity:1" fill="#c1c1c1" d="M 255.5,218.5 C 256.5,218.5 257.5,218.5 258.5,218.5C 258.5,219.833 258.5,221.167 258.5,222.5C 257.5,222.5 256.5,222.5 255.5,222.5C 255.5,221.167 255.5,219.833 255.5,218.5 Z"/></g>
<g><path style="opacity:1" fill="#bfbfbf" d="M 269.5,218.5 C 270.5,218.5 271.5,218.5 272.5,218.5C 272.5,219.833 272.5,221.167 272.5,222.5C 269.046,222.733 268.046,221.4 269.5,218.5 Z"/></g>
<g><path style="opacity:1" fill="#ecb26c" d="M 205.5,205.5 C 205.5,214.167 205.5,222.833 205.5,231.5C 241.167,231.5 276.833,231.5 312.5,231.5C 276.671,232.498 240.671,232.832 204.5,232.5C 204.173,223.318 204.507,214.318 205.5,205.5 Z"/></g>
<g><path style="opacity:1" fill="#dcd4cc" d="M 247.5,245.5 C 254.841,245.334 262.174,245.5 269.5,246C 272.054,248.269 272.054,250.602 269.5,253C 262.167,253.667 254.833,253.667 247.5,253C 244.914,250.506 244.914,248.006 247.5,245.5 Z"/></g>
<g><path style="opacity:1" fill="#ebb472" d="M 304.5,253.5 C 305.404,254.209 305.737,255.209 305.5,256.5C 274.329,256.831 243.329,256.498 212.5,255.5C 243.518,256.159 274.185,255.492 304.5,253.5 Z"/></g>
<g><path style="opacity:1" fill="#46b8fc" d="M 209.5,276.5 C 214.895,275.555 216.561,277.555 214.5,282.5C 209.303,283.63 207.636,281.63 209.5,276.5 Z"/></g>
<g><path style="opacity:1" fill="#45b8fc" d="M 230.5,275.5 C 234.167,275.164 237.5,275.997 240.5,278C 239.929,279.205 239.262,280.372 238.5,281.5C 233.159,279.089 230.825,280.755 231.5,286.5C 233.833,286.5 236.167,286.5 238.5,286.5C 238.5,287.833 238.5,289.167 238.5,290.5C 236.167,290.5 233.833,290.5 231.5,290.5C 231.5,295.833 231.5,301.167 231.5,306.5C 232.833,306.5 234.167,306.5 235.5,306.5C 235.5,307.833 235.5,309.167 235.5,310.5C 231.167,310.5 226.833,310.5 222.5,310.5C 222.5,309.167 222.5,307.833 222.5,306.5C 223.5,306.5 224.5,306.5 225.5,306.5C 225.5,301.167 225.5,295.833 225.5,290.5C 224.167,290.5 222.833,290.5 221.5,290.5C 221.5,289.167 221.5,287.833 221.5,286.5C 222.833,286.5 224.167,286.5 225.5,286.5C 224.386,281.428 226.053,277.761 230.5,275.5 Z"/></g>
<g><path style="opacity:1" fill="#44b7fc" d="M 146.5,278.5 C 151.547,278.337 156.547,278.671 161.5,279.5C 161.5,282.167 161.5,284.833 161.5,287.5C 159.833,287.5 158.167,287.5 156.5,287.5C 156.01,282.263 153.343,281.097 148.5,284C 147.065,286.267 147.398,288.267 149.5,290C 154.201,291.227 158.368,293.394 162,296.5C 164.507,306.105 160.674,311.105 150.5,311.5C 148.077,311.406 145.744,310.906 143.5,310C 141.679,307.544 141.012,304.711 141.5,301.5C 143.167,301.5 144.833,301.5 146.5,301.5C 145.755,304.93 147.089,306.597 150.5,306.5C 156.055,306.46 157.721,303.96 155.5,299C 152.167,297.667 148.833,296.333 145.5,295C 139.936,289.124 140.269,283.624 146.5,278.5 Z"/></g>
<g><path style="opacity:1" fill="#101010" d="M 270.5,278.5 C 275.537,278.413 280.537,278.746 285.5,279.5C 285.5,282.5 285.5,285.5 285.5,288.5C 283.833,288.5 282.167,288.5 280.5,288.5C 281.247,282.933 278.913,281.1 273.5,283C 268.743,285.346 266.743,289.179 267.5,294.5C 266.877,303.381 270.877,307.214 279.5,306C 280.406,304.301 280.739,302.467 280.5,300.5C 282.167,300.5 283.833,300.5 285.5,300.5C 285.817,303.572 285.484,306.572 284.5,309.5C 274.365,314.009 266.865,311.342 262,301.5C 259.042,291.401 261.875,283.734 270.5,278.5 Z"/></g>
<g><path style="opacity:1" fill="#49b8fc" d="M 246.5,281.5 C 247.5,281.5 248.5,281.5 249.5,281.5C 249.5,283.167 249.5,284.833 249.5,286.5C 251.5,286.5 253.5,286.5 255.5,286.5C 255.5,287.833 255.5,289.167 255.5,290.5C 253.5,290.5 251.5,290.5 249.5,290.5C 249.334,295.511 249.501,300.511 250,305.5C 252,306.833 254,306.833 256,305.5C 257.009,307.025 257.509,308.692 257.5,310.5C 252.873,312.367 248.706,311.701 245,308.5C 243.59,302.621 243.09,296.621 243.5,290.5C 242.5,290.5 241.5,290.5 240.5,290.5C 240.5,289.167 240.5,287.833 240.5,286.5C 243.69,286.313 245.69,284.646 246.5,281.5 Z"/></g>
<g><path style="opacity:1" fill="#101010" d="M 348.5,281.5 C 349.5,281.5 350.5,281.5 351.5,281.5C 351.5,283.167 351.5,284.833 351.5,286.5C 353.5,286.5 355.5,286.5 357.5,286.5C 357.5,287.833 357.5,289.167 357.5,290.5C 355.5,290.5 353.5,290.5 351.5,290.5C 351.334,295.511 351.501,300.511 352,305.5C 354.908,305.908 357.408,307.075 359.5,309C 354.091,312.849 349.591,312.016 346,306.5C 345.501,301.177 345.334,295.844 345.5,290.5C 344.5,290.5 343.5,290.5 342.5,290.5C 342.5,289.167 342.5,287.833 342.5,286.5C 345.69,286.313 347.69,284.646 348.5,281.5 Z"/></g>
<g><path style="opacity:1" fill="#45b7fc" d="M 166.5,286.5 C 170.167,286.5 173.833,286.5 177.5,286.5C 177.5,287.833 177.5,289.167 177.5,290.5C 176.448,290.351 175.448,290.517 174.5,291C 176.051,295.369 177.218,299.869 178,304.5C 179.66,298.858 181.16,293.191 182.5,287.5C 184.5,287.5 186.5,287.5 188.5,287.5C 189.84,293.191 191.34,298.858 193,304.5C 193.769,300.486 194.603,296.486 195.5,292.5C 194.246,290.666 193.579,288.666 193.5,286.5C 196.833,286.5 200.167,286.5 203.5,286.5C 203.5,287.833 203.5,289.167 203.5,290.5C 202.5,290.5 201.5,290.5 200.5,290.5C 198.958,297.125 197.625,303.792 196.5,310.5C 193.833,310.5 191.167,310.5 188.5,310.5C 187.961,305.679 186.795,301.012 185,296.5C 183.203,301.023 182.036,305.69 181.5,310.5C 178.833,310.5 176.167,310.5 173.5,310.5C 172.376,301.98 170.043,293.98 166.5,286.5 Z"/></g>
<g><path style="opacity:1" fill="#42b7fd" d="M 206.5,286.5 C 209.5,286.5 212.5,286.5 215.5,286.5C 215.5,293.167 215.5,299.833 215.5,306.5C 216.5,306.5 217.5,306.5 218.5,306.5C 218.5,307.833 218.5,309.167 218.5,310.5C 214.5,310.5 210.5,310.5 206.5,310.5C 206.5,309.167 206.5,307.833 206.5,306.5C 207.5,306.5 208.5,306.5 209.5,306.5C 209.5,301.167 209.5,295.833 209.5,290.5C 208.5,290.5 207.5,290.5 206.5,290.5C 206.5,289.167 206.5,287.833 206.5,286.5 Z"/></g>
<g><path style="opacity:1" fill="#0c0c0c" d="M 299.5,285.5 C 303.876,285.114 308.043,285.781 312,287.5C 312.5,293.825 312.666,300.158 312.5,306.5C 313.5,306.5 314.5,306.5 315.5,306.5C 315.5,307.833 315.5,309.167 315.5,310.5C 312.289,310.988 309.456,310.321 307,308.5C 302.733,311.106 298.399,311.106 294,308.5C 289.216,299.023 291.05,291.356 299.5,285.5 Z"/></g>
<g><path style="opacity:1" fill="#0a0a0a" d="M 331.5,285.5 C 337.396,284.848 339.73,287.515 338.5,293.5C 337.167,293.5 335.833,293.5 334.5,293.5C 334.5,292.5 334.5,291.5 334.5,290.5C 332.278,290.178 330.444,290.845 329,292.5C 328.501,297.155 328.334,301.821 328.5,306.5C 329.833,306.5 331.167,306.5 332.5,306.5C 332.5,307.833 332.5,309.167 332.5,310.5C 328.167,310.5 323.833,310.5 319.5,310.5C 319.5,309.167 319.5,307.833 319.5,306.5C 320.5,306.5 321.5,306.5 322.5,306.5C 322.5,301.167 322.5,295.833 322.5,290.5C 321.5,290.5 320.5,290.5 319.5,290.5C 319.5,289.167 319.5,287.833 319.5,286.5C 322.167,286.5 324.833,286.5 327.5,286.5C 327.351,287.552 327.517,288.552 328,289.5C 329.102,288.051 330.269,286.718 331.5,285.5 Z"/></g>
<g><path style="opacity:1" fill="#c9c9c9" d="M 301.5,289.5 C 303.467,289.261 305.301,289.594 307,290.5C 307.667,295.167 307.667,299.833 307,304.5C 300.531,308.393 297.365,306.559 297.5,299C 296.836,294.844 298.169,291.677 301.5,289.5 Z"/></g>
<g><path style="opacity:1" fill="#0b0b0b" d="M 206.5,323.5 C 209.572,323.183 212.572,323.516 215.5,324.5C 213.604,325.466 211.604,325.799 209.5,325.5C 209.5,326.833 209.5,328.167 209.5,329.5C 217.5,330.167 217.5,330.833 209.5,331.5C 209.5,332.833 209.5,334.167 209.5,335.5C 211.604,335.201 213.604,335.534 215.5,336.5C 212.572,337.484 209.572,337.817 206.5,337.5C 206.5,332.833 206.5,328.167 206.5,323.5 Z"/></g>
<g><path style="opacity:1" fill="#6d30e9" d="M 231.5,323.5 C 234.685,323.02 237.519,323.686 240,325.5C 240.591,326.483 240.257,327.15 239,327.5C 237.026,325.628 234.859,325.295 232.5,326.5C 234.35,328.572 236.683,329.905 239.5,330.5C 241.316,334.752 239.983,337.085 235.5,337.5C 231.792,337.671 229.792,336.004 229.5,332.5C 231.668,333.179 233.668,334.179 235.5,335.5C 237,335.547 238,334.881 238.5,333.5C 235.496,332.245 232.663,330.579 230,328.5C 229.387,326.505 229.887,324.838 231.5,323.5 Z"/></g>
<g><path style="opacity:1" fill="#5e17eb" d="M 248.5,323.5 C 248.5,325.5 248.5,327.5 248.5,329.5C 250.833,329.5 253.167,329.5 255.5,329.5C 255.5,327.5 255.5,325.5 255.5,323.5C 256.805,325.397 257.471,327.731 257.5,330.5C 257.167,332.833 256.833,335.167 256.5,337.5C 255.534,335.604 255.201,333.604 255.5,331.5C 253.167,331.5 250.833,331.5 248.5,331.5C 248.799,333.604 248.466,335.604 247.5,337.5C 247.167,335.167 246.833,332.833 246.5,330.5C 246.529,327.731 247.195,325.397 248.5,323.5 Z"/></g>
<g><path style="opacity:1" fill="#6829e9" d="M 266.5,323.5 C 275.169,322.338 278.335,326.005 276,334.5C 272.61,338.032 268.943,338.366 265,335.5C 262.66,331.052 263.16,327.052 266.5,323.5 Z"/></g>
<g><path style="opacity:1" fill="#692ae9" d="M 282.5,323.5 C 285.518,323.335 288.518,323.502 291.5,324C 294.167,326.333 294.167,328.667 291.5,331C 289.527,331.495 287.527,331.662 285.5,331.5C 285.5,333.5 285.5,335.5 285.5,337.5C 284.5,337.5 283.5,337.5 282.5,337.5C 282.5,332.833 282.5,328.167 282.5,323.5 Z"/></g>
<g><path style="opacity:1" fill="#d2cdda" d="M 268.5,325.5 C 273.674,325.835 275.341,328.501 273.5,333.5C 269.479,336.602 267.146,335.602 266.5,330.5C 266.437,328.486 267.103,326.819 268.5,325.5 Z"/></g>
<g><path style="opacity:1" fill="#d2cdda" d="M 285.5,325.5 C 287.665,325.116 289.332,325.783 290.5,327.5C 289.332,329.217 287.665,329.884 285.5,329.5C 285.5,328.167 285.5,326.833 285.5,325.5 Z"/></g>
<g><path style="opacity:1" fill="#a688e0" d="M 248.5,323.5 C 249.451,324.919 249.784,326.585 249.5,328.5C 251.167,328.5 252.833,328.5 254.5,328.5C 254.216,326.585 254.549,324.919 255.5,323.5C 255.5,325.5 255.5,327.5 255.5,329.5C 253.167,329.5 250.833,329.5 248.5,329.5C 248.5,327.5 248.5,325.5 248.5,323.5 Z"/></g>
</svg>
