<?xml version="1.0" encoding="UTF-8"?>
<!DOCTYPE svg PUBLIC "-//W3C//DTD SVG 1.1//EN" "http://www.w3.org/Graphics/SVG/1.1/DTD/svg11.dtd">
<svg xmlns="http://www.w3.org/2000/svg" version="1.1" width="500px" height="500px" style="shape-rendering:geometricPrecision; text-rendering:geometricPrecision; image-rendering:optimizeQuality; fill-rule:evenodd; clip-rule:evenodd" xmlns:xlink="http://www.w3.org/1999/xlink">
<g><path style="opacity:1" fill="#baf6cf" d="M -0.5,-0.5 C 166.167,-0.5 332.833,-0.5 499.5,-0.5C 499.5,166.167 499.5,332.833 499.5,499.5C 332.833,499.5 166.167,499.5 -0.5,499.5C -0.5,332.833 -0.5,166.167 -0.5,-0.5 Z"/></g>
<g><path style="opacity:1" fill="#ca73e4" d="M 65.5,225.5 C 71.1667,225.5 76.8333,225.5 82.5,225.5C 82.6646,228.518 82.498,231.518 82,234.5C 80.1799,228.839 76.3465,226.672 70.5,228C 66.8184,229.32 65.3184,231.82 66,235.5C 72.3333,240.167 78.6667,244.833 85,249.5C 88.4141,261.935 83.5808,268.269 70.5,268.5C 66.3733,268.51 62.54,267.51 59,265.5C 58.0867,261.638 58.4201,257.972 60,254.5C 62.0509,265.192 68.0509,268.192 78,263.5C 80.3346,259.845 79.8346,256.679 76.5,254C 71.8333,251 67.1667,248 62.5,245C 56.6213,237.439 57.6213,230.939 65.5,225.5 Z"/></g>
<g><path style="opacity:1" fill="#c2b6da" d="M 214.5,226.5 C 207.313,226.175 200.313,226.509 193.5,227.5C 192.527,227.013 191.527,226.513 190.5,226C 198.677,225.177 206.677,225.344 214.5,226.5 Z"/></g>
<g><path style="opacity:1" fill="#c2bbd9" d="M 234.5,225.5 C 233.167,227.5 233.167,229.5 234.5,231.5C 233.001,236.515 232.334,236.015 232.5,230C 232.833,228.167 233.167,226.333 233.5,224.5C 234.107,224.624 234.44,224.957 234.5,225.5 Z"/></g>
<g><path style="opacity:1" fill="#ca71e5" d="M 234.5,225.5 C 246.167,225.5 257.833,225.5 269.5,225.5C 270.833,227.5 270.833,229.5 269.5,231.5C 268.942,230.21 267.942,229.377 266.5,229C 263.183,228.502 259.85,228.335 256.5,228.5C 256.333,240.505 256.5,252.505 257,264.5C 257.5,265.667 258.333,266.5 259.5,267C 254.167,267.667 248.833,267.667 243.5,267C 245.061,266.682 246.228,265.849 247,264.5C 247.5,252.505 247.667,240.505 247.5,228.5C 243.818,228.335 240.152,228.501 236.5,229C 235.619,229.708 234.953,230.542 234.5,231.5C 233.167,229.5 233.167,227.5 234.5,225.5 Z"/></g>
<g><path style="opacity:1" fill="#c2bcd9" d="M 269.5,225.5 C 269.56,224.957 269.893,224.624 270.5,224.5C 271.659,228.122 271.825,231.789 271,235.5C 270.209,234.255 269.709,232.922 269.5,231.5C 270.833,229.5 270.833,227.5 269.5,225.5 Z"/></g>
<g><path style="opacity:1" fill="#0e120f" d="M 290.5,225.5 C 295.844,225.334 301.177,225.501 306.5,226C 308.762,226.642 310.929,227.475 313,228.5C 313.667,231.833 313.667,235.167 313,238.5C 310.916,231.254 306.083,227.587 298.5,227.5C 291.625,228.195 287.125,231.861 285,238.5C 283.887,245.715 284.554,252.715 287,259.5C 293.143,266.138 300.31,267.304 308.5,263C 311.49,259.372 313.323,255.205 314,250.5C 314.667,254.167 314.667,257.833 314,261.5C 313.07,263.552 311.57,265.052 309.5,266C 300.159,269.766 291.159,269.099 282.5,264C 274.587,256.645 272.42,247.812 276,237.5C 279.399,231.724 284.232,227.724 290.5,225.5 Z"/></g>
<g><path style="opacity:1" fill="#080b09" d="M 338.5,225.5 C 345.148,238.136 351.315,251.136 357,264.5C 357.903,265.701 359.069,266.535 360.5,267C 354.833,267.667 349.167,267.667 343.5,267C 345.18,266.653 346.18,265.653 346.5,264C 345.794,261.38 344.794,258.88 343.5,256.5C 338.615,255.198 333.782,255.198 329,256.5C 327.767,258.866 326.934,261.366 326.5,264C 326.755,265.326 327.422,266.326 328.5,267C 324.5,267.667 320.5,267.667 316.5,267C 318.848,266.654 320.681,265.487 322,263.5C 327.79,250.924 333.29,238.257 338.5,225.5 Z"/></g>
<g><path style="opacity:1" fill="#698c76" d="M 386.5,226.5 C 379.313,226.175 372.313,226.509 365.5,227.5C 364.711,227.217 364.044,226.717 363.5,226C 371.345,225.178 379.011,225.344 386.5,226.5 Z"/></g>
<g><path style="opacity:1" fill="#111512" d="M 405.5,225.5 C 418.167,225.5 430.833,225.5 443.5,225.5C 443.665,228.85 443.498,232.183 443,235.5C 442.934,232.724 441.768,230.558 439.5,229C 435.848,228.501 432.182,228.335 428.5,228.5C 428.333,240.505 428.5,252.505 429,264.5C 429.833,265.333 430.667,266.167 431.5,267C 426.167,267.667 420.833,267.667 415.5,267C 416.766,266.691 417.933,266.191 419,265.5C 419.5,253.171 419.667,240.838 419.5,228.5C 415.818,228.335 412.152,228.501 408.5,229C 407.299,229.903 406.465,231.069 406,232.5C 405.503,230.19 405.337,227.857 405.5,225.5 Z"/></g>
<g><path style="opacity:1" fill="#ca71e5" d="M 193.5,227.5 C 200.313,226.509 207.313,226.175 214.5,226.5C 224.419,228.896 227.253,234.896 223,244.5C 220.92,246.123 218.754,247.623 216.5,249C 217.931,249.465 219.097,250.299 220,251.5C 222.667,255.5 225.333,259.5 228,263.5C 229.8,265.317 231.966,266.484 234.5,267C 226.819,269.001 220.319,267.167 215,261.5C 212.797,256.256 209.964,251.422 206.5,247C 214.083,245.652 216.916,241.152 215,233.5C 212.78,229.308 209.28,227.641 204.5,228.5C 204.333,240.838 204.5,253.171 205,265.5C 206.067,266.191 207.234,266.691 208.5,267C 196.167,267.667 183.833,267.667 171.5,267C 172.91,266.632 173.91,265.799 174.5,264.5C 173.199,261.573 172.199,258.573 171.5,255.5C 166.821,255.334 162.155,255.501 157.5,256C 155.903,258.527 154.57,261.194 153.5,264C 153.82,265.653 154.82,266.653 156.5,267C 146.122,267.815 137.789,267.649 131.5,266.5C 131.457,258.733 130.623,251.066 129,243.5C 123.974,251.551 119.474,259.885 115.5,268.5C 110.333,260.167 105.167,251.833 100,243.5C 98.5647,251.378 98.398,259.211 99.5,267C 95.8333,267.667 92.1667,267.667 88.5,267C 91.1906,267.054 93.0239,265.887 94,263.5C 95.1437,250.696 96.977,238.029 99.5,225.5C 105.5,235.167 111.5,244.833 117.5,254.5C 123.736,245.037 129.736,235.37 135.5,225.5C 138.088,238.032 139.921,250.699 141,263.5C 143.178,267.065 145.844,267.399 149,264.5C 154.743,251.35 160.743,238.35 167,225.5C 173.388,239.107 179.888,252.607 186.5,266C 189.669,266.978 192.503,266.478 195,264.5C 195.667,252.5 195.667,240.5 195,228.5C 194.617,227.944 194.117,227.611 193.5,227.5 Z"/></g>
<g><path style="opacity:1" fill="#070a08" d="M 365.5,227.5 C 372.313,226.509 379.313,226.175 386.5,226.5C 397.149,228.798 399.982,234.798 395,244.5C 393.333,246.628 391.166,247.961 388.5,248.5C 393.38,253.251 397.546,258.584 401,264.5C 402.648,265.717 404.481,266.55 406.5,267C 399.436,268.745 393.269,267.245 388,262.5C 385.697,256.712 382.53,251.546 378.5,247C 386.528,245.465 389.362,240.632 387,232.5C 384.409,228.952 380.909,227.618 376.5,228.5C 376.333,240.838 376.5,253.171 377,265.5C 378.067,266.191 379.234,266.691 380.5,267C 375.167,267.667 369.833,267.667 364.5,267C 365.667,266.5 366.5,265.667 367,264.5C 367.667,252.5 367.667,240.5 367,228.5C 366.617,227.944 366.117,227.611 365.5,227.5 Z"/></g>
<g><path style="opacity:1" fill="#bcefd1" d="M 163.5,239.5 C 166.449,243.657 168.449,248.323 169.5,253.5C 165.774,253.823 162.107,253.489 158.5,252.5C 160.457,248.256 162.124,243.923 163.5,239.5 Z"/></g>
<g><path style="opacity:1" fill="#aee6c1" d="M 335.5,239.5 C 336.497,239.47 337.164,239.97 337.5,241C 338.976,245.098 340.642,249.098 342.5,253C 338.459,253.827 334.459,253.66 330.5,252.5C 332.464,248.246 334.131,243.912 335.5,239.5 Z"/></g>
<g><path style="opacity:1" fill="#fac162" d="M 248.5,290.5 C 250.223,294.115 251.223,298.115 251.5,302.5C 250.359,305.64 250.192,308.973 251,312.5C 251.75,313.126 252.584,313.626 253.5,314C 251.167,314.667 248.833,314.667 246.5,314C 247.792,310.429 248.458,306.595 248.5,302.5C 248.458,298.405 247.792,294.571 246.5,291C 247.094,290.536 247.761,290.369 248.5,290.5 Z"/></g>
<g><path style="opacity:1" fill="#dfd890" d="M 248.5,290.5 C 249.209,289.596 250.209,289.263 251.5,289.5C 251.185,293.371 251.518,297.038 252.5,300.5C 252.5,300.833 252.5,301.167 252.5,301.5C 252.5,302.167 252.167,302.5 251.5,302.5C 251.223,298.115 250.223,294.115 248.5,290.5 Z"/></g>
<g><path style="opacity:1" fill="#f4c76e" d="M 316.5,291.5 C 319.957,291.667 320.29,292.667 317.5,294.5C 316.614,293.675 316.281,292.675 316.5,291.5 Z"/></g>
<g><path style="opacity:1" fill="#232c26" d="M 146.5,292.5 C 150.367,291.775 153.034,293.108 154.5,296.5C 154.167,297.167 153.833,297.833 153.5,298.5C 152.194,294.602 149.694,293.602 146,295.5C 146.324,299.191 148.324,301.858 152,303.5C 156.568,312.934 153.734,316.434 143.5,314C 140.993,307.173 142.993,305.173 149.5,308C 148.181,309.628 146.848,309.461 145.5,307.5C 142.895,309.236 142.895,311.069 145.5,313C 151.433,314.075 153.267,311.908 151,306.5C 147.667,304.5 145,301.833 143,298.5C 142.651,295.669 143.817,293.669 146.5,292.5 Z"/></g>
<g><path style="opacity:1" fill="#f5c66c" d="M 235.5,292.5 C 239.367,291.775 242.034,293.108 243.5,296.5C 243.167,297.167 242.833,297.833 242.5,298.5C 241.194,294.602 238.694,293.602 235,295.5C 235.324,299.191 237.324,301.858 241,303.5C 245.568,312.934 242.734,316.434 232.5,314C 229.993,307.173 231.993,305.173 238.5,308C 237.181,309.628 235.848,309.461 234.5,307.5C 231.895,309.236 231.895,311.069 234.5,313C 240.433,314.075 242.267,311.908 240,306.5C 237.146,304.402 234.479,302.069 232,299.5C 231.176,296.16 232.343,293.827 235.5,292.5 Z"/></g>
<g><path style="opacity:1" fill="#111512" d="M 215.5,296.5 C 216.434,297.568 216.768,298.901 216.5,300.5C 220.5,300.833 220.5,301.167 216.5,301.5C 216.5,305.5 216.5,309.5 216.5,313.5C 217.873,313.343 219.207,313.51 220.5,314C 218.527,314.495 216.527,314.662 214.5,314.5C 215.065,309.678 214.399,305.178 212.5,301C 214.141,299.871 215.141,298.371 215.5,296.5 Z"/></g>
<g><path style="opacity:1" fill="#232c26" d="M 172.5,301.5 C 175.59,298.637 178.423,298.971 181,302.5C 180.948,306.656 181.781,310.49 183.5,314C 181.167,314.667 178.833,314.667 176.5,314C 177.733,312.302 178.4,310.302 178.5,308C 179.745,302.746 177.745,300.579 172.5,301.5 Z"/></g>
<g><path style="opacity:1" fill="#0a0e0c" d="M 206.5,302.5 C 204.896,306.557 205.23,310.39 207.5,314C 205.5,314.667 203.5,314.667 201.5,314C 203.834,310.108 204.167,305.942 202.5,301.5C 203,301.167 203.5,300.833 204,300.5C 205.011,301.056 205.844,301.722 206.5,302.5 Z"/></g>
<g><path style="opacity:1" fill="#fac162" d="M 252.5,301.5 C 252.5,301.167 252.5,300.833 252.5,300.5C 254.67,299.232 256.837,299.232 259,300.5C 259.746,305.209 260.912,309.709 262.5,314C 260.5,314.667 258.5,314.667 256.5,314C 257.72,312.475 258.387,310.641 258.5,308.5C 259.491,303.448 257.491,301.114 252.5,301.5 Z"/></g>
<g><path style="opacity:1" fill="#f4c66d" d="M 286.5,299.5 C 292.318,298.731 295.318,301.231 295.5,307C 295.101,313.229 291.768,316.063 285.5,315.5C 284.971,319.351 285.638,322.851 287.5,326C 285.167,326.667 282.833,326.667 280.5,326C 281.796,322.091 282.463,317.925 282.5,313.5C 282.463,309.075 281.796,304.909 280.5,301C 282.708,300.809 284.708,300.309 286.5,299.5 Z"/></g>
<g><path style="opacity:1" fill="#f9c162" d="M 303.5,299.5 C 311.541,300.04 314.041,304.04 311,311.5C 308.454,314.186 305.287,315.186 301.5,314.5C 301.335,317.85 301.502,321.183 302,324.5C 302.75,325.126 303.584,325.626 304.5,326C 302.167,326.667 299.833,326.667 297.5,326C 298.796,322.091 299.463,317.925 299.5,313.5C 299.463,309.075 298.796,304.909 297.5,301C 299.708,300.809 301.708,300.309 303.5,299.5 Z"/></g>
<g><path style="opacity:1" fill="#f4c66c" d="M 317.5,299.5 C 318.877,304.195 320.21,309.028 321.5,314C 319.167,314.667 316.833,314.667 314.5,314C 315.743,312.13 316.41,309.964 316.5,307.5C 316.468,305.241 316.134,303.075 315.5,301C 316.416,300.722 317.082,300.222 317.5,299.5 Z"/></g>
<g><path style="opacity:1" fill="#f9c264" d="M 327.5,299.5 C 329.626,300.705 331.793,300.705 334,299.5C 335.711,299.439 337.044,300.106 338,301.5C 337.937,305.982 338.77,310.148 340.5,314C 338.5,314.667 336.5,314.667 334.5,314C 335.72,312.475 336.387,310.641 336.5,308.5C 337.476,302.692 335.309,300.692 330,302.5C 329.833,304.333 329.667,306.167 329.5,308C 329.6,310.302 330.267,312.302 331.5,314C 329.167,314.667 326.833,314.667 324.5,314C 325.743,312.13 326.41,309.964 326.5,307.5C 326.41,305.036 325.743,302.87 324.5,301C 325.737,300.768 326.737,300.268 327.5,299.5 Z"/></g>
<g><path style="opacity:1" fill="#0d110f" d="M 172.5,301.5 C 170.828,305.911 171.162,310.078 173.5,314C 171.5,314.667 169.5,314.667 167.5,314C 168.733,312.302 169.4,310.302 169.5,308C 170.58,302.072 168.414,300.239 163,302.5C 162.833,304.333 162.667,306.167 162.5,308C 162.6,310.302 163.267,312.302 164.5,314C 159.627,314.751 158.294,314.584 160.5,313.5C 161.055,309.003 160.389,304.836 158.5,301C 163.375,299.162 168.041,299.329 172.5,301.5 Z"/></g>
<g><path style="opacity:1" fill="#151b17" d="M 189.5,299.5 C 192.044,299.104 194.211,299.771 196,301.5C 195.937,305.982 196.77,310.148 198.5,314C 196.633,314.711 195.133,314.211 194,312.5C 191.925,314.648 189.592,314.982 187,313.5C 187.236,309.089 189.736,307.089 194.5,307.5C 195.781,301.089 193.781,299.422 188.5,302.5C 188.167,302.167 187.833,301.833 187.5,301.5C 188.243,300.818 188.909,300.151 189.5,299.5 Z"/></g>
<g><path style="opacity:1" fill="#27332b" d="M 206.5,302.5 C 207.751,300.439 209.418,300.106 211.5,301.5C 209.955,302.452 208.288,302.785 206.5,302.5 Z"/></g>
<g><path style="opacity:1" fill="#bef4cb" d="M 285.5,301.5 C 293.508,301.862 295.508,305.529 291.5,312.5C 289.591,313.348 287.591,313.682 285.5,313.5C 285.5,309.5 285.5,305.5 285.5,301.5 Z"/></g>
<g><path style="opacity:1" fill="#c0f3c8" d="M 302.5,301.5 C 305.044,301.104 307.211,301.771 309,303.5C 310.004,306.993 309.504,310.159 307.5,313C 305.559,313.743 303.726,313.576 302,312.5C 301.245,308.745 301.411,305.078 302.5,301.5 Z"/></g>
<g><path style="opacity:1" fill="#f8c365" d="M 269.5,299.5 C 279.004,301.101 281.004,305.935 275.5,314C 271.227,316.122 268.06,314.955 266,310.5C 264.662,305.96 265.829,302.293 269.5,299.5 Z"/></g>
<g><path style="opacity:1" fill="#bef4ca" d="M 269.5,301.5 C 272.808,300.974 274.974,302.307 276,305.5C 276.782,308.257 276.282,310.757 274.5,313C 271.196,314.042 269.029,312.875 268,309.5C 267.109,306.502 267.609,303.836 269.5,301.5 Z"/></g>
<g><path style="opacity:1" fill="#ace4c0" d="M 191.5,308.5 C 192.675,308.281 193.675,308.614 194.5,309.5C 190.129,315.002 189.129,314.669 191.5,308.5 Z"/></g>
<g><path style="opacity:1" fill="#f9c264" d="M 347.5,299.5 C 351.188,299.781 354.855,300.281 358.5,301C 357.552,301.483 356.552,301.649 355.5,301.5C 356.412,307.085 354.079,310.251 348.5,311C 347.663,312.011 347.33,313.178 347.5,314.5C 351.257,314.071 354.757,314.737 358,316.5C 358.502,324.653 354.669,327.82 346.5,326C 342.402,322.351 342.735,319.018 347.5,316C 343.675,314.232 343.675,312.232 347.5,310C 343.565,306.504 343.565,303.004 347.5,299.5 Z"/></g>
<g><path style="opacity:1" fill="#c3f1c3" d="M 348.5,300.5 C 352.976,300.822 354.476,303.156 353,307.5C 349.509,310.446 347.342,309.612 346.5,305C 346.519,303.167 347.185,301.667 348.5,300.5 Z"/></g>
<g><path style="opacity:1" fill="#bef4cb" d="M 348.5,316.5 C 350.527,316.338 352.527,316.505 354.5,317C 357.192,319.632 356.859,321.966 353.5,324C 346.369,325.211 344.702,322.711 348.5,316.5 Z"/></g>
</svg>
